<svg xmlns="http://www.w3.org/2000/svg" viewBox="0 0 64 64">
  <rect width="64" height="64" rx="12" fill="#faf7ed"/>
  <rect x="3" y="3" width="58" height="58" rx="9" fill="none" stroke="#10233e" stroke-width="2"/>
  <rect x="7" y="7" width="50" height="50" rx="6" fill="none" stroke="#2457ce" stroke-width="1" opacity=".48"/>
  <g fill="none" stroke="#10233e" stroke-width="2.8" stroke-linejoin="miter">
    <path d="M14 19 32 8l18 11-8 8-10-6-10 6-8-8Z"/>
    <path d="m14 30 9-6 9 6 9-6 10 7v15L32 57 14 47V30Zm10 8v5l8 5 9-5v-5l-9 6-8-6Z"/>
  </g>
  <circle cx="49" cy="48" r="6" fill="#faf7ed" stroke="#8a2636" stroke-width="1.5"/>
  <path d="m49 44 1.2 2.8L53 48l-2.8 1.2L49 52l-1.2-2.8L45 48l2.8-1.2L49 44Z" fill="#8a2636"/>
</svg>
